<svg version="1.2" xmlns="http://www.w3.org/2000/svg" viewBox="0 -0.11764705882360715 324.705882352941 94.11764705882361" width="325" height="95">
	<style>
		.s0 { fill: #fbf4c2 } 
	</style>
	<g id="Ebene 1">
		<g id="&lt;Group&gt;">
			<path id="&lt;Compound Path&gt;" class="s0" d="m67.66 44.22c-2.44 1.03-4.75 2.06-7.05 3.1-0.23 0.11-0.41 0.32-0.61 0.48 0.31 0.11 0.66 0.37 0.93 0.3 4.62-1.17 9.33-1.32 14.06-1.33q1.3-0.01 2.57 0.24c1.33 0.28 2.36 1.13 2.53 2.45 0.16 1.28-0.96 1.98-1.94 2.66-6.01 4.18-12.93 6.66-19.23 10.29-2.33 1.34-4.79 2.48-7.15 3.78-0.43 0.24-0.67 0.8-1 1.22 0.52-0.07 1.08-0.03 1.56-0.21 3.06-1.14 6.11-2.34 9.18-3.49 0.24-0.09 0.55 0.02 0.83 0.04-0.19 0.26-0.32 0.63-0.57 0.75-1.97 0.97-3.94 1.93-5.95 2.82-3.25 1.45-6.51 2.9-9.81 4.23-2.38 0.97-4.83 1.77-7.28 2.56-0.37 0.13-0.98-0.06-1.31-0.31-0.77-0.6-1.57-1.24-2.11-2.03-0.91-1.36-0.74-2.71 0.91-3.39 3.64-1.5 7.13-3.28 10.22-5.72 0.95-0.75 1.77-1.77 2.36-2.82 0.79-1.4 1.36-2.93 1.92-4.45 0.18-0.5 0.02-1.13 0.02-1.71-0.42 0.02-0.85 0.01-1.27 0.07-1.29 0.21-2.86-0.91-3.4-2.44-0.48-1.34 0.03-2.49 1.42-3.23 0.22-0.12 0.42-0.31 0.65-0.39 1.18-0.4 0.77-0.97 0.09-1.4-1.1-0.69-2.13-1.4-2.11-2.85 0.01-0.74 0.01-1.58 0.34-2.19 1.17-2.15 3.01-3.61 5.1-4.88 3.51-2.12 7.26-3.74 11.24-4.33 4.57-0.67 9.24-0.68 13.87-0.89 0.95-0.04 1.92 0.26 2.88 0.45 1.9 0.37 3.12 1.6 3.76 3.35 0.4 1.08-0.44 1.81-1.25 2.22-3.99 2.02-8.02 3.96-12.04 5.93-0.75 0.36-1.48 0.74-2.36 1.12zm-3.79-7.45c-1.87 0.58-4.16 0.71-3.96 3.58 0 0.03-0.08 0.06-0.09 0.1q-0.11 0.59-0.21 1.19c0.49-0.08 1.01-0.08 1.46-0.25q5.57-2.25 11.13-4.53c0.61-0.25 1.24-0.48 1.81-0.8 0.22-0.13 0.3-0.48 0.45-0.73-0.3-0.13-0.63-0.4-0.91-0.36-3.19 0.53-6.36 1.1-9.68 1.8zm1.28 15.98c1.15-0.47 2.31-0.91 3.44-1.42 0.2-0.09 0.3-0.43 0.45-0.65-0.27-0.1-0.57-0.31-0.82-0.27-2.62 0.48-5.23 1-7.85 1.49-2.38 0.44-4.82 0.75-5.23 3.86-0.06 0.4-0.27 0.78-0.39 1.17-0.08 0.31-0.13 0.63-0.19 0.94 0.33-0.02 0.72 0.06 0.99-0.08 1.5-0.78 2.97-1.65 4.47-2.43 1.65-0.86 3.33-1.65 5.13-2.61zm-9.91-10.82c0.34-0.76 0.71-1.5 1.01-2.26 0.09-0.22-0.03-0.52-0.05-0.78-0.26 0.07-0.57 0.07-0.78 0.22-0.72 0.52-1.36 1.19-2.13 1.62-1.41 0.8-2.53 1.87-3.17 3.32-0.25 0.55 0.04 1.37 0.17 2.04 0.02 0.09 0.64 0.2 0.85 0.07 1.66-1.01 3.78-1.58 4.1-4.23z"/>
			<path id="&lt;Compound Path&gt;" class="s0" d="m186.17 51.42c0.12 1.35 0.3 2.56 0.33 3.78 0.02 1.31-0.07 2.62-0.18 3.92-0.08 0.99 0.31 1.74 0.93 2.45 0.2 0.22 0.2 0.61 0.29 0.92-0.43-0.02-1.08 0.13-1.25-0.09-0.8-1.06-1.65-2.15-2.16-3.37-1.25-2.96-1.93-6.09-1.98-9.29-0.03-1.72 0.46-3.44 0.7-5.17 0.03-0.24-0.04-0.49-0.06-0.74-0.25 0.07-0.52 0.09-0.73 0.22-0.54 0.33-1.01 0.79-1.58 1.05-3.04 1.4-4.48 3.98-5.34 7.04-0.6 2.15-1.33 4.28-2 6.41-0.58 1.85-1.48 2.7-2.55 2.28-1.46-0.57-2.43-2.38-1.95-3.9 0.45-1.42 1-2.82 1.4-4.25 0.12-0.44 0.09-1.12-0.18-1.44-1.94-2.31-1.48-4.07 0.08-6.06 0.8-1.01 1.92-1.77 2.9-2.63 0.75-0.65 1.33-1.31 1.59-2.4 0.35-1.51 1.15-2.91 1.71-4.39 0.15-0.4 0.11-0.88 0.16-1.32-0.37 0.18-0.75 0.33-1.1 0.53-1.12 0.64-2.22 1.32-3.35 1.95-1.2 0.66-1.21 1.13-0.07 1.9 0.45 0.3 0.9 0.65 1.21 1.07 0.22 0.31 0.2 0.8 0.29 1.2-0.42 0.02-0.97 0.21-1.24 0.02-1.7-1.17-3.64-1.62-5.57-2.15-0.47-0.13-0.95-0.41-1.31-0.73-1.33-1.18-1.27-2.16 0.2-3.16 4.93-3.36 10.25-5.89 16.09-7.21 2.28-0.51 4.6-1.02 6.92-1.18 2.28-0.16 4.57 0.32 6.6 1.46 1.75 0.97 1.83 2.8 0.57 4.34-2.63 3.2-5.74 5.8-9.21 8.02-0.47 0.31-0.7 1.55-0.51 2.21 0.65 2.28 0.68 4.53 0.32 6.83-0.08 0.56 0.01 1.16 0.03 1.88zm-5.67-13.74q2.98-2 5.95-4.01 1.89-1.26 3.75-2.55c0.14-0.09 0.19-0.31 0.28-0.47-0.22-0.07-0.46-0.25-0.65-0.2q-4.39 1.08-8.75 2.26c-1.19 0.32-2.01 0.98-1.73 2.44 0.13 0.65 0.06 1.34 0.06 2.01q-0.01 0.37-0.05 0.75c0.34-0.03 0.67-0.06 1.14-0.23z"/>
			<path id="&lt;Compound Path&gt;" class="s0" d="m248.3 48.78c0.18 1.09 0.37 2.05 0.53 3.02 0.07 0.43 0.22 0.93 0.07 1.3-0.52 1.27-0.01 2.28 0.61 3.33 0.16 0.27 0.02 0.72 0.02 1.09-0.4-0.05-0.9 0.04-1.17-0.17-2.57-2-4.17-4.6-4.62-7.85q-0.17-1.36-0.33-2.71c-0.02-0.2-0.1-0.4-0.15-0.6-0.18 0.1-0.45 0.16-0.53 0.31-0.82 1.41-2.2 1.85-3.64 2.2-1.43 0.35-1.38 1.71-1.72 2.73-0.22 0.69 0.03 1.53 0 2.31-0.04 0.99-0.07 2-0.26 2.97-0.21 1.04-1.31 1.32-2.07 0.54-1.25-1.29-1.74-2.93-1.33-4.61 0.74-3.06 1.75-6.06 2.6-9.1 0.28-1-0.28-1.75-1.02-2.37-0.9-0.75-1.76-1.58-1.44-2.87 0.18-0.71 0.58-1.41 1.02-1.99 2.63-3.45 5.82-6.12 10.25-6.8 1.47-0.23 3.02-0.3 4.47-0.07 1.4 0.22 2.68 0.94 3.25 2.47 0.2 0.54 0.43 1.12 0.81 1.53 0.91 0.97 0.58 2-0.06 2.75-1.63 1.89-3.42 3.64-5.16 5.44-0.74 0.76-1.26 1.43-0.82 2.7 0.47 1.35 0.48 2.87 0.69 4.45zm-2.66-11.65c1.13-0.91 2.28-1.8 3.39-2.74 0.3-0.25 0.48-0.63 0.72-0.95-0.49-0.06-1.04-0.3-1.44-0.15q-2.15 0.81-4.19 1.87c-2.04 1.06-3.74 2.42-3.53 5.07 0.02 0.21 0.09 0.41 0.13 0.62 0.22-0.12 0.45-0.22 0.64-0.37 1.39-1.06 2.76-2.14 4.28-3.35z"/>
			<path id="&lt;Compound Path&gt;" class="s0" d="m257.53 36.95c-0.75-0.34-1.18-0.72-1.2-1.59-0.04-1.28 0.62-2.13 1.59-2.62 1.54-0.79 3.15-1.52 4.81-1.98 2.42-0.67 6.93 2.01 7.9 4.35 1.39 3.37 1.11 6.6-0.56 9.78-1.23 2.36-2.14 4.97-3.75 7.03-2.6 3.32-5.47 6.56-9.76 7.8-0.63 0.18-1.7-0.4-2.26-0.95-0.44-0.43-0.54-1.34-0.54-2.04-0.01-0.43 0.38-0.92 0.69-1.3 0.86-1.01 1.48-1.95 0.95-3.44-0.91-2.55 0-5.01 0.78-7.43 0.64-2.01 1.42-3.98 1.99-6.01 0.13-0.42-0.36-1.02-0.64-1.6zm9.21 6.19c0.34-0.62 0.76-1.21 0.99-1.87 1.13-3.23 0.53-5.04-2.5-5.91-1.28-0.37-2.83 0.5-3.2 1.97-0.5 1.97-1.17 3.9-1.74 5.85q-1.27 4.29-2.49 8.61c-0.06 0.19 0.11 0.52 0.28 0.66 0.11 0.09 0.47 0.01 0.62-0.11 3.1-2.6 6.15-5.24 8.04-9.2z"/>
			<path id="&lt;Compound Path&gt;" class="s0" d="m147.89 47.38c0.65 3.93-0.62 7.53-1.15 11.2-0.06 0.44-0.65 1.18-0.88 1.14-0.48-0.09-1.03-0.51-1.3-0.95-1.03-1.67-1.14-3.57-1.12-5.47 0.01-0.93-0.04-1.27-1.33-1.05-2.67 0.46-4.35 1.84-5.63 4.1-0.55 0.97-1.33 1.94-2.24 2.57-1.43 0.99-3.72-0.7-3.93-2.69-0.17-1.58 0.37-2.97 1.17-4.21q4.99-7.68 10.15-15.24c0.77-1.12 1.82-2.08 2.86-2.98 0.64-0.55 1.57-0.02 1.79 0.81 0.42 1.58 1.09 3.12 1.26 4.72 0.28 2.62 0.25 5.27 0.35 8.05zm-6.87-0.4c-0.04 0.17-0.13 0.33-0.11 0.49 0.06 0.55-0.29 1.36 0.73 1.38 0.79 0.01 1.7 0.23 1.79-1.07 0.15-1.97 0.4-3.93 0.56-5.89 0.03-0.38-0.18-0.77-0.28-1.15-0.25 0.32-0.62 0.59-0.76 0.96-0.63 1.7-1.2 3.43-1.93 5.28zm-2.27 0.99q0.04 0.31 0.08 0.61 0.23-0.16 0.45-0.33c-0.13-0.14-0.26-0.27-0.53-0.28z"/>
			<path id="&lt;Compound Path&gt;" class="s0" d="m229.59 47.76c0.65 3.93-0.61 7.53-1.14 11.21-0.06 0.44-0.65 1.17-0.88 1.13-0.48-0.08-1.03-0.51-1.3-0.95-1.04-1.67-1.14-3.56-1.12-5.47 0-0.93-0.04-1.26-1.33-1.04-2.67 0.45-4.36 1.84-5.64 4.09-0.55 0.98-1.32 1.94-2.23 2.57-1.43 0.99-3.73-0.7-3.94-2.69-0.16-1.58 0.37-2.97 1.18-4.21q4.99-7.67 10.14-15.23c0.77-1.13 1.83-2.09 2.87-2.99 0.63-0.54 1.57-0.01 1.79 0.82 0.41 1.57 1.09 3.11 1.26 4.71 0.28 2.62 0.24 5.28 0.34 8.05zm-6.86-0.39c-0.04 0.16-0.14 0.33-0.12 0.48 0.07 0.55-0.28 1.37 0.74 1.38 0.78 0.01 1.7 0.24 1.79-1.07 0.14-1.96 0.4-3.92 0.56-5.89 0.02-0.37-0.18-0.76-0.28-1.14-0.26 0.31-0.62 0.59-0.76 0.95-0.63 1.7-1.21 3.43-1.93 5.29zm-2.27 0.99q0.04 0.3 0.08 0.6 0.22-0.16 0.44-0.32c-0.13-0.14-0.26-0.28-0.52-0.28z"/>
			<path id="&lt;Compound Path&gt;" class="s0" d="m291.66 37.96c-0.18 1.53-0.26 2.94-0.59 4.3-0.54 2.18-1.09 4.37-1.9 6.45-1.48 3.76-3.9 6.79-7.77 8.28-1.89 0.72-3.76 0.15-5.3-1.17-2.6-2.21-3.08-5.04-2.55-8.29 0.83-5.05 3.34-9.21 6.55-13.03 1.01-1.21 2.02-2.41 3.1-3.56 0.28-0.31 0.87-0.64 1.2-0.55 2.67 0.73 5.05 2.06 6.66 4.33 0.56 0.78 0.42 2.06 0.6 3.24zm-8.63-1.3c-0.25 0.26-0.55 0.49-0.74 0.78-2.04 3.16-3.34 6.66-4.71 10.15-0.62 1.58-0.79 3.15-0.68 4.79 0.08 1.19 0.95 1.88 2.08 2.01 2.71 0.31 4.27-1.49 5.36-3.35 2.2-3.76 2.92-8 2.75-12.35-0.1-2.36-2.02-3.36-4.06-2.03z"/>
			<path id="&lt;Path&gt;" class="s0" d="m204.77 53.45c-0.71 2.43-1.42 4.73-2.13 7.03q-0.12 0.37-0.11 0.75c0.01 0.29 0.1 0.58 0.15 0.87 0.27-0.1 0.58-0.16 0.81-0.32 1.27-0.93 2.48-1.95 3.8-2.8 0.55-0.36 1.72-0.72 1.92-0.49 0.67 0.78-0.19 1.35-0.69 1.9q-1.82 2.03-3.62 4.06c-1.85 2.09-4.72 1.86-6.38-0.39-1.82-2.47-1.07-4.82 0-7.27 3.43-7.9 8.18-15.06 12.59-22.41 0.48-0.81 1.02-1.59 1.66-2.28 0.48-0.52 1.1-1.01 1.9-0.39 0.65 0.5 1.09 1.05 0.8 1.92-0.54 1.66-1.16 3.3-1.58 4.98-0.43 1.71-0.65 3.48-0.98 5.22-0.32 1.65-0.6 3.31-1.01 4.94-0.09 0.33-0.71 0.75-1.07 0.73-0.53-0.02-1.26-0.25-1.55-0.65-1.14-1.57-1.47-1.64-2.43 0.08-0.79 1.41-1.39 2.92-2.08 4.52z"/>
			<path id="&lt;Path&gt;" class="s0" d="m115.87 50c1.32 3.25 0.74 4.69-1.23 6.29-0.97 0.8-2.25 1.22-3.4 1.81-0.37 0.18-0.78 0.29-1.12 0.52-2.07 1.4-4.46 1.35-6.79 1.51-1.01 0.07-3.06-1.81-3.1-2.77-0.04-1.15 0.75-1.9 1.67-2.22 1.16-0.4 2.43-0.45 3.64-0.69 2.4-0.48 4.81-0.95 7.2-1.53 0.5-0.12 0.9-0.69 1.35-1.06-0.42-0.44-0.75-1.09-1.26-1.29-1.77-0.69-3.57-1.43-5.43-1.76-2.97-0.52-5.02-4.25-2.99-6.95 1.29-1.71 3.07-3.1 4.81-4.39 1.32-0.97 2.9-1.6 4.41-2.28 1.16-0.52 4.68 0.59 5.22 1.67 0.25 0.49 0.27 1.25 0.09 1.78-0.29 0.82-0.96 0.35-1.53 0.22-0.35-0.08-0.82-0.06-1.09 0.12-2.29 1.6-4.55 3.25-6.82 4.88-0.31 0.22-0.66 0.41-0.9 0.69-0.55 0.64-0.42 1.04 0.47 1.24 2.05 0.46 4.05 1.12 5.63 2.6 0.46 0.42 0.74 1.02 1.17 1.61z"/>
			<path id="&lt;Compound Path&gt;" class="s0" d="m121.68 42.01c0.51-1.71 0.83-3.38 1.55-4.85 1.16-2.37 2.57-4.58 5.11-5.83 3.05-1.51 6.16 0.08 6.35 3.49 0.19 3.7-0.77 7.08-3.33 9.89-0.5 0.54-1.04 1.09-1.38 1.73-0.79 1.49-2.04 2.05-3.62 1.91-1.12-0.09-1.55 0.56-1.82 1.44q-1.31 4.29-2.61 8.58c-0.21 0.72-0.33 1.5-0.7 2.12-0.26 0.42-0.92 0.9-1.34 0.85-0.47-0.05-1.21-0.63-1.26-1.05-0.14-1.22-0.22-2.54 0.08-3.72 0.76-3.06 1.85-6.04 2.56-9.11 0.4-1.71 0.3-3.54 0.41-5.45zm8.85-7.99c-0.4 0.42-0.85 0.79-1.19 1.25-1.5 2.06-2 4.54-2.79 6.89-0.08 0.23 0.12 0.55 0.19 0.82 0.35-0.11 0.83-0.12 1.04-0.36 1.28-1.44 2.58-2.86 3.69-4.42 0.69-0.96 1.1-2.14 0.82-3.4-0.19-0.81-0.5-1.46-1.76-0.78z"/>
			<path id="&lt;Compound Path&gt;" class="s0" d="m90.12 39.99c1.76-0.59 2.48-2.04 3.21-3.44 0.58-1.09 1.46-1.68 2.63-1.42 1.16 0.25 1.22 1.42 1.43 2.35q0.69 2.99-0.1 6c-0.19 0.75-0.33 1.89 1.22 1.54 0.26-0.06 0.61 0.21 0.91 0.33q-0.25 0.43-0.5 0.85-0.04 0.06-0.09 0.1c-0.59 0.47-1.57 0.87-1.67 1.42-0.2 1.13 0.09 2.35 0.17 3.53 0.17 2.42 0.51 4.87-0.46 7.21-0.19 0.46-0.8 0.75-1.21 1.12-0.35-0.46-0.93-0.89-1.02-1.4q-0.74-4.31-1.26-8.66c-0.12-0.95-0.46-0.98-1.07-0.53-1.98 1.47-4.11 2.75-5.1 5.24-0.43 1.08-1.21 2.07-2.01 2.93-0.84 0.9-1.46 0.61-2.22-0.4-1.48-1.96-0.78-3.79 0.2-5.55 2.02-3.62 4.15-7.18 6.25-10.75 0.11-0.19 0.41-0.27 0.69-0.47zm2.04 4.2c-0.24 0.43-0.51 0.86-0.72 1.31-0.13 0.28-0.17 0.61-0.25 0.92 0.42-0.02 0.89 0.06 1.25-0.1 0.33-0.14 0.73-0.52 0.79-0.85 0.23-1.25 0.35-2.53 0.48-3.8 0.01-0.19-0.18-0.4-0.27-0.61-0.19 0.16-0.49 0.28-0.56 0.48-0.28 0.78-0.49 1.58-0.72 2.65z"/>
			<path id="&lt;Path&gt;" class="s0" d="m190.9 55.55c-0.18-0.87-0.3-1.68-0.39-2.49-0.25-2.27 0.42-4.41 1.24-6.44 1.24-3.07 2.67-6.06 4.1-9.05 0.53-1.09 1.09-1.05 1.8-0.04 1.08 1.53 0.79 3.25 0.4 4.86-0.94 3.87-2.07 7.7-3.1 11.56q-0.34 1.27-0.6 2.56c-0.21 1.04 0.3 1.76 1.09 2.38 0.24 0.19 0.33 0.59 0.48 0.9-0.41 0.02-0.9 0.19-1.23 0.03-1.82-0.87-2.9-2.43-3.79-4.27z"/>
		</g>
	</g>
</svg>